<?xml version="1.0" encoding="UTF-8"?>
<!DOCTYPE svg PUBLIC "-//W3C//DTD SVG 1.1//EN" "http://www.w3.org/Graphics/SVG/1.1/DTD/svg11.dtd">
<!-- Creator: CorelDRAW -->
<svg xmlns="http://www.w3.org/2000/svg" xml:space="preserve" width="20.3198mm" height="6.0958mm" version="1.1" style="shape-rendering:geometricPrecision; text-rendering:geometricPrecision; image-rendering:optimizeQuality; fill-rule:evenodd; clip-rule:evenodd"
viewBox="0 0 2031.98 609.58"
 xmlns:xlink="http://www.w3.org/1999/xlink"
 xmlns:xodm="http://www.corel.com/coreldraw/odm/2003">
 <defs>
  <style type="text/css">
   <![CDATA[
    .fil0 {fill:white;fill-rule:nonzero}
   ]]>
  </style>
 </defs>
 <g id="Camada_x0020_1">
  <metadata id="CorelCorpID_0Corel-Layer"/>
  <g id="_2266833557440">
   <path class="fil0" d="M916.15 418.81l65.68 0 -0.56 -0.55c-0.83,-1.11 -2.49,-3.33 -4.43,-6.93l-0.28 -0.56c-3.04,-6.92 -6.38,-18.01 -6.38,-34.64l0 -48.74c0,-46 -20.5,-83.42 -69,-83.42 -25.49,0 -44.62,14.97 -54.03,29.93 -9.43,-18.29 -25.51,-29.93 -49.34,-29.93 -9.15,0 -21.06,1.67 -27.72,4.44 -22.72,9.7 -48.5,9.14 -70.94,-0.83 0.54,0.83 3.05,4.15 5.54,10.53 2.77,7.2 5.54,18.01 5.54,32.15l0.28 85.59c0,24.67 -7.48,37.7 -10.53,41.86l-1.11 1.37 66.52 0 -0.56 -0.54c-0.83,-1.12 -2.49,-3.32 -4.44,-6.93l-0.27 -0.55c-3.05,-6.93 -6.38,-18.02 -6.38,-34.65l-0.27 -58.17c0,-41 11.09,-61.79 40.46,-61.79 17.18,0 24.66,20.79 24.66,61.79l0 0.56 0 57.89c0,24.66 -7.48,37.69 -10.53,41.85l-1.1 1.38 66.51 0 -0.56 -0.55c-0.83,-1.11 -2.5,-3.33 -4.43,-6.93l-0.27 -0.55c-3.05,-6.94 -6.38,-18.03 -6.38,-34.65l0 -62.05c0.83,-38.8 11.64,-57.91 40.18,-57.91 17.19,0 24.67,20.78 24.67,61.8l0 57.88c0,24.67 -7.48,37.69 -10.53,41.85zm-0.83 0l0.83 0 0.27 -1.39 -1.1 1.39z"/>
   <path class="fil0" d="M1201.95 418.81l62.63 0 -0.56 -0.55c-0.83,-1.11 -2.49,-3.33 -4.43,-6.93l-0.27 -0.56c-3.05,-6.92 -6.38,-18.01 -6.38,-34.64l0 -37.14c0,-46 -19.68,-83.42 -75.94,-83.42 -9.14,0 -21.06,1.67 -27.71,4.44 -22.72,9.7 -48.5,9.14 -70.95,-0.83 0.56,0.83 3.05,4.15 5.54,10.53 2.77,7.21 5.55,18.01 5.55,32.15l0.27 73.99c0,24.67 -7.48,37.7 -10.53,41.86l-1.1 1.37 66.51 0 -0.56 -0.54c-0.83,-1.12 -2.49,-3.32 -4.43,-6.93l-0.28 -0.55c-3.04,-6.93 -6.38,-18.02 -6.38,-34.65l-0.27 -46.56c0,-41.01 10.26,-61.8 44.07,-61.8 26.6,0 36.58,20.79 36.58,61.8l0 46.28c0,24.67 -7.49,37.7 -10.53,41.85l0.27 -0.56 -1.1 1.39z"/>
   <path class="fil0" d="M1361.22 409.39l0 0.28c-26.61,0 -44.07,-29.93 -44.07,-71.23 0,-41.02 17.46,-71.22 44.07,-71.22 33.8,0 44.34,30.2 44.34,71.22 0,26.61 -10.81,70.95 -44.34,70.95zm87.58 -33.81l0 -141.07c0,-19.4 -19.69,-35.19 -39.08,-35.19l-15.53 0c0,0 11.65,12.75 11.65,42.95l0 37.42c-9.98,-13.86 -31.59,-24.67 -54.87,-24.67 -52.11,0 -77.05,37.42 -77.05,83.42 0,46.01 28.27,83.42 76.77,83.42 24.66,0 46.83,-12.19 56.81,-27.16 4.71,13.85 21.61,23.84 37.14,23.84l15.79 0c0,0 -11.63,-12.75 -11.63,-42.96z"/>
   <path class="fil0" d="M1556.13 418.5l-0.51 -0.51c-0.85,-1.12 -2.51,-3.33 -4.44,-6.94l-0.27 -0.55c-2.99,-6.76 -6.23,-17.52 -6.37,-33.52 -0.01,-0.47 -0.01,-154.06 -0.01,-154.06 0,-19.42 -15.8,-35.21 -35.2,-35.21l-19.66 0 0.03 0.05 0.09 0.09c1.23,1.47 11.17,14.02 11.5,41.42 0.01,0.37 0.01,154.07 0.01,154.07 0,19.4 15.79,35.19 35.19,35.19l19.69 0c0,0 -0.02,-0.01 -0.05,-0.03z"/>
   <path class="fil0" d="M1605.39 191.55c-13.03,0 -23.56,10.53 -23.56,23.56 0,13.03 10.53,23.56 23.29,23.56l0.27 0c13.03,0 23.57,-10.53 23.57,-23.56 0,-13.03 -10.54,-23.56 -23.57,-23.56zm32.71 226.7l-0.56 -0.54c-0.83,-1.12 -2.49,-3.33 -4.43,-6.94l-0.28 -0.55c-3.04,-6.93 -6.38,-18.01 -6.38,-34.64l0 -82.04c0,-19.4 -15.79,-35.19 -35.19,-35.19l-8.04 0 0 116.95c0,24.67 -7.48,37.69 -10.53,41.85l0.27 -0.27 -1.1 1.37 66.24 0z"/>
   <path class="fil0" d="M1029.39 191.55c-13.02,0 -23.56,10.53 -23.56,23.56 0,13.03 10.54,23.56 23.29,23.56l0.27 0c13.03,0 23.56,-10.53 23.56,-23.56 0,-13.03 -10.53,-23.56 -23.56,-23.56zm32.71 226.7l-0.56 -0.54c-0.83,-1.12 -2.49,-3.33 -4.44,-6.94l-0.27 -0.55c-3.05,-6.93 -6.38,-18.01 -6.38,-34.64l0 -82.04c0,-19.4 -15.79,-35.19 -35.19,-35.19l-8.04 0 0 116.95c0,24.67 -7.48,37.69 -10.52,41.85l0.27 -0.27 -1.11 1.37 66.24 0z"/>
   <path class="fil0" d="M1777.95 418.54l62.63 0 -0.55 -0.56c-0.83,-1.1 -2.49,-3.32 -4.44,-6.92l-0.27 -0.56c-3.05,-6.93 -6.38,-18.01 -6.38,-34.64l0 -37.14c0,-46.01 -19.67,-83.42 -75.94,-83.42 -9.14,0 -21.06,1.66 -27.71,4.44 -22.72,9.7 -48.5,9.14 -70.95,-0.83 0.55,0.83 3.05,4.15 5.54,10.53 2.77,7.19 5.55,18.01 5.55,32.14l0.27 74c0,24.66 -7.48,37.69 -10.53,41.84l-1.1 1.39 66.51 0 -0.56 -0.56c-0.83,-1.1 -2.5,-3.32 -4.43,-6.92l-0.27 -0.55c-3.05,-6.93 -6.38,-18.02 -6.38,-34.65l-0.28 -46.56c0,-41.02 10.25,-61.8 44.07,-61.8 26.61,0 36.58,20.78 36.58,61.8l0 46.29c0,24.66 -7.48,37.69 -10.53,41.85l0.27 -0.56 -1.1 1.39z"/>
   <path class="fil0" d="M1928.88 268.88l0.28 0c32.42,-8.87 54.88,22.17 59.86,53.76 0.83,5.54 -3.59,11.65 -9.41,11.65l-82.05 0c-1.93,-26.88 2.78,-57.65 31.32,-65.41zm29.94 138.01l-0.28 0c-33.91,-0.16 -52.13,-30.28 -58.48,-60.14l106.7 0c16.62,0 28.54,-14.68 24.39,-31.03 -9.7,-37.7 -43.79,-60.69 -87.3,-60.69 -54.87,0 -89.24,36.85 -89.24,82.85 0,46.01 34.37,83.99 89.24,83.99 40.74,0 74.27,-24.95 85.63,-54.61 0,0 -28.7,39.46 -70.66,39.63z"/>
   <path class="fil0" d="M574.85 185.81c4.47,-1.92 7.02,-3.35 7.43,-3.58 21.87,-12.54 35.46,-35.97 35.46,-61.16 0,-37.97 -30.21,-69.01 -67.86,-70.38 -6.96,-28.69 -32.85,-50.06 -63.65,-50.06 -35.76,0 -64.91,28.81 -65.49,64.43l-9.94 94.29c-2.96,28.06 -24.44,50.82 -52.25,55.34 -14.85,2.41 -25.63,15.17 -25.63,30.34l0 164.57c0,8.57 6.94,15.51 15.5,15.51 8.57,0 15.51,-6.94 15.51,-15.51l0 -164.37c41.38,-6.91 73.31,-40.83 77.72,-82.63l10 -94.84 0 0c0.02,-0.28 0.03,-0.57 0.04,-0.85 0.01,-0.25 0.04,-0.51 0.04,-0.77 0,0 0,0 0,0 0,-19.03 15.47,-34.5 34.5,-34.5 15.65,0 28.89,10.48 33.1,24.79 -0.67,0.29 -1.35,0.57 -2.01,0.88 -7.75,3.65 -11.07,12.89 -7.42,20.64 3.64,7.75 12.88,11.07 20.63,7.42 5.26,-2.47 10.9,-3.73 16.77,-3.73 21.74,0 39.43,17.69 39.43,39.43 0,14.1 -7.62,27.22 -19.87,34.25 -0.23,0.13 -16.89,9.42 -45.27,11.55 -2.07,-0.13 -4.15,-0.21 -6.25,-0.21 -1.52,0 -2.98,0.23 -4.37,0.63 -9.19,0.06 -19.35,-0.68 -30.38,-2.64 -8.44,-1.5 -16.48,4.12 -17.98,12.55 -1.5,8.44 4.12,16.48 12.55,17.99 12.42,2.21 24.01,3.1 34.62,3.1 3.96,0 7.78,-0.13 11.45,-0.35 36.62,3.01 65.5,33.75 65.5,71.13 0,39.36 -32.03,71.39 -71.39,71.39 -8.57,0 -15.51,6.94 -15.51,15.5 0,5.49 2.85,10.3 7.15,13.06 7.5,9.07 11.63,20.54 11.63,32.35 0,28.03 -22.81,50.84 -50.85,50.84 -10.8,0 -21.12,-3.34 -29.83,-9.66 -6.93,-5.03 -16.63,-3.5 -21.66,3.43 -5.03,6.93 -3.49,16.63 3.44,21.66 0.29,0.21 0.58,0.4 0.87,0.61 -1.35,14.4 -13.5,25.72 -28.26,25.72 -15.65,0 -28.39,-12.73 -28.39,-28.39l0 -0.55c0,-8.56 -6.94,-15.51 -15.51,-15.51 -8.56,0 -15.5,6.95 -15.5,15.51l0 81.11c0,13.81 7.84,25.81 19.31,31.8l-86.73 0c11.47,-5.99 19.32,-17.99 19.32,-31.8l0 -81.11c0,-8.56 -6.94,-15.51 -15.51,-15.51 -8.56,0 -15.51,6.95 -15.51,15.51l0 0.55c0,15.66 -12.73,28.39 -28.39,28.39 -14.75,0 -26.91,-11.32 -28.26,-25.72 0.29,-0.21 0.58,-0.4 0.87,-0.61 6.93,-5.03 8.47,-14.73 3.44,-21.66 -5.03,-6.93 -14.73,-8.46 -21.66,-3.43 -8.71,6.32 -19.02,9.66 -29.83,9.66 -28.04,0 -50.85,-22.81 -50.85,-50.84 0,-11.81 4.13,-23.28 11.63,-32.35 4.3,-2.76 7.16,-7.57 7.16,-13.06 0,-8.56 -6.95,-15.5 -15.51,-15.5 -39.37,0 -71.39,-32.03 -71.39,-71.39 0,-37.38 28.87,-68.12 65.48,-71.13 3.68,0.22 7.5,0.35 11.46,0.35 10.61,0 22.2,-0.89 34.62,-3.1 8.43,-1.51 14.05,-9.55 12.55,-17.99 -1.5,-8.43 -9.54,-14.05 -17.98,-12.55 -11.07,1.97 -21.32,2.68 -30.6,2.59 -1.32,-0.37 -2.71,-0.58 -4.14,-0.58 -1.91,0 -3.81,0.06 -5.69,0.17 -28.52,-2.11 -45.65,-11.41 -45.84,-11.51 -12.25,-7.03 -19.86,-20.15 -19.86,-34.25 0,-21.74 17.68,-39.43 39.42,-39.43 5.87,0 11.52,1.26 16.77,3.73 7.75,3.65 16.99,0.33 20.64,-7.42 3.65,-7.75 0.32,-16.99 -7.43,-20.64 -0.66,-0.31 -1.33,-0.59 -2.01,-0.88 4.21,-14.31 17.45,-24.79 33.11,-24.79 19.02,0 34.49,15.47 34.49,34.5 0,0 0,0 0,0 0,0.26 0.03,0.52 0.04,0.77 0.02,0.28 0.02,0.57 0.05,0.85l0 0 10 94.84c4.4,41.8 36.34,75.72 77.71,82.63l0 164.37c0,8.57 6.95,15.51 15.51,15.51 8.57,0 15.51,-6.94 15.51,-15.51l0 -164.57c0,-15.17 -10.79,-27.93 -25.64,-30.34 -27.81,-4.52 -49.29,-27.28 -52.25,-55.34l-9.94 -94.29c-0.58,-35.62 -29.72,-64.43 -65.48,-64.43 -30.81,0 -56.7,21.37 -63.66,50.06 -37.65,1.37 -67.86,32.41 -67.86,70.38 0,25.19 13.59,48.62 35.46,61.16 0.41,0.23 2.96,1.66 7.43,3.58 -25.94,18.6 -42.89,48.98 -42.89,83.26 0,47.09 31.97,86.84 75.34,98.75 -4.71,10.48 -7.22,21.91 -7.22,33.55 0,45.13 36.73,81.86 81.86,81.86 6.17,0 12.24,-0.7 18.13,-2.03 6.88,25.2 29.96,43.79 57.31,43.79 10.28,0 19.95,-2.63 28.39,-7.24l0 28.39c0,2.66 -2.16,4.83 -4.82,4.83l-13.49 0c-8.56,0 -15.51,6.94 -15.51,15.51l0 26.96c0,8.57 6.95,15.51 15.51,15.51l146.75 0c8.57,0 15.51,-6.94 15.51,-15.51l0 -26.96c0,-8.57 -6.94,-15.51 -15.51,-15.51l-13.48 0c-2.67,0 -4.83,-2.17 -4.83,-4.83l0 -28.39c8.44,4.61 18.11,7.24 28.39,7.24 27.35,0 50.43,-18.59 57.31,-43.79 5.89,1.33 11.96,2.03 18.13,2.03 45.14,0 81.86,-36.73 81.86,-81.86 0,-11.64 -2.51,-23.07 -7.21,-33.55 43.36,-11.91 75.33,-51.66 75.33,-98.75 0,-34.28 -16.95,-64.66 -42.89,-83.26z"/>
   <path class="fil0" d="M270.79 41.7l76.15 0 0 29.1 -11.75 0c-9.97,0 -19.13,3.5 -26.33,9.34 -7.19,-5.84 -16.35,-9.34 -26.31,-9.34l-11.76 0 0 -29.1zm-15.51 60.11l27.27 0c5.96,0 10.81,4.86 10.81,10.82 0,8.57 6.94,15.51 15.5,15.51 8.57,0 15.51,-6.94 15.51,-15.51 0,-5.96 4.85,-10.82 10.82,-10.82l27.26 0c8.56,0 15.51,-6.94 15.51,-15.51l0 -60.11c0,-8.56 -6.95,-15.51 -15.51,-15.51l-107.17 0c-8.56,0 -15.51,6.95 -15.51,15.51l0 60.11c0,8.57 6.95,15.51 15.51,15.51z"/>
   <path class="fil0" d="M1412.78 507.32l0 -43.42 18.33 0c0.43,0 0.99,0.01 1.71,0.05 0.72,0.02 1.35,0.08 1.91,0.19 2.6,0.39 4.72,1.24 6.38,2.56 1.66,1.32 2.89,2.96 3.66,4.94 0.78,1.97 1.18,4.17 1.18,6.62 0,2.42 -0.4,4.63 -1.2,6.61 -0.79,1.99 -2.02,3.63 -3.67,4.94 -1.66,1.3 -3.77,2.16 -6.35,2.55 -0.56,0.09 -1.19,0.14 -1.93,0.19 -0.72,0.03 -1.28,0.05 -1.69,0.05l-10.12 0 0 14.72 -8.21 0zm8.21 -22.38l9.76 0c0.43,0 0.89,-0.02 1.38,-0.05 0.5,-0.05 0.98,-0.12 1.41,-0.24 1.11,-0.31 1.95,-0.82 2.54,-1.52 0.6,-0.72 1.03,-1.52 1.25,-2.39 0.24,-0.88 0.36,-1.71 0.36,-2.48 0,-0.79 -0.12,-1.63 -0.36,-2.5 -0.22,-0.87 -0.65,-1.67 -1.25,-2.38 -0.59,-0.71 -1.43,-1.23 -2.54,-1.52 -0.43,-0.12 -0.91,-0.2 -1.41,-0.24 -0.49,-0.05 -0.95,-0.06 -1.38,-0.06l-9.76 0 0 13.38zm47.4 23.29c-3.23,0 -6.13,-0.57 -8.71,-1.7 -2.59,-1.14 -4.71,-2.77 -6.36,-4.89 -1.66,-2.13 -2.7,-4.66 -3.15,-7.59l8.57 -1.26c0.59,2.49 1.84,4.41 3.74,5.76 1.9,1.35 4.03,2.02 6.44,2.02 1.36,0 2.65,-0.21 3.92,-0.63 1.28,-0.43 2.32,-1.05 3.13,-1.87 0.82,-0.84 1.23,-1.84 1.23,-3.06 0,-0.43 -0.07,-0.85 -0.21,-1.26 -0.12,-0.43 -0.34,-0.81 -0.65,-1.17 -0.29,-0.36 -0.71,-0.7 -1.28,-1.02 -0.54,-0.33 -1.25,-0.63 -2.08,-0.89l-11.29 -3.32c-0.83,-0.24 -1.83,-0.58 -2.94,-1.01 -1.11,-0.44 -2.2,-1.07 -3.25,-1.89 -1.04,-0.84 -1.89,-1.94 -2.59,-3.29 -0.71,-1.35 -1.05,-3.07 -1.05,-5.14 0,-2.93 0.74,-5.34 2.19,-7.27 1.47,-1.93 3.44,-3.37 5.88,-4.31 2.46,-0.94 5.18,-1.4 8.16,-1.38 2.99,0.03 5.67,0.55 8.02,1.54 2.34,0.97 4.3,2.41 5.89,4.29 1.59,1.88 2.76,4.17 3.46,6.89l-8.88 1.5c-0.32,-1.4 -0.9,-2.58 -1.77,-3.55 -0.88,-0.98 -1.9,-1.71 -3.1,-2.21 -1.2,-0.49 -2.44,-0.77 -3.74,-0.8 -1.28,-0.05 -2.5,0.13 -3.64,0.53 -1.13,0.39 -2.06,0.96 -2.77,1.69 -0.72,0.74 -1.08,1.62 -1.08,2.65 0,0.94 0.29,1.71 0.87,2.31 0.6,0.6 1.33,1.08 2.21,1.43 0.89,0.36 1.79,0.67 2.71,0.91l7.54 2.05c1.13,0.29 2.38,0.7 3.75,1.2 1.37,0.49 2.68,1.18 3.93,2.05 1.25,0.87 2.29,2.02 3.09,3.45 0.83,1.42 1.24,3.23 1.24,5.42 0,2.35 -0.5,4.38 -1.47,6.12 -0.98,1.73 -2.28,3.17 -3.94,4.31 -1.64,1.13 -3.5,1.97 -5.59,2.53 -2.07,0.57 -4.22,0.86 -6.43,0.86zm24.66 -0.91l0 -43.42 8.2 0 0 43.42 -8.2 0zm35.88 0.91c-4.34,0 -8.08,-0.94 -11.23,-2.84 -3.15,-1.9 -5.57,-4.53 -7.27,-7.93 -1.69,-3.41 -2.54,-7.36 -2.54,-11.85 0,-4.5 0.85,-8.45 2.54,-11.85 1.7,-3.4 4.12,-6.03 7.27,-7.93 3.15,-1.9 6.89,-2.84 11.23,-2.84 4.98,0 9.16,1.23 12.55,3.71 3.4,2.48 5.8,5.81 7.18,10.04l-8.27 2.29c-0.81,-2.64 -2.16,-4.67 -4.07,-6.12 -1.9,-1.46 -4.36,-2.19 -7.39,-2.19 -2.75,0 -5.06,0.61 -6.89,1.84 -1.83,1.22 -3.21,2.94 -4.15,5.18 -0.93,2.23 -1.39,4.84 -1.39,7.87 0,3.02 0.46,5.64 1.39,7.88 0.94,2.22 2.32,3.95 4.15,5.18 1.83,1.21 4.14,1.83 6.89,1.83 3.03,0 5.49,-0.74 7.39,-2.19 1.91,-1.47 3.26,-3.5 4.07,-6.12l8.27 2.29c-1.38,4.22 -3.78,7.56 -7.18,10.04 -3.39,2.48 -7.57,3.71 -12.55,3.71zm45 0c-4.34,0 -8.09,-0.94 -11.23,-2.84 -3.15,-1.9 -5.58,-4.53 -7.27,-7.93 -1.69,-3.41 -2.55,-7.36 -2.55,-11.85 0,-4.5 0.86,-8.45 2.55,-11.85 1.69,-3.4 4.12,-6.03 7.27,-7.93 3.14,-1.9 6.89,-2.84 11.23,-2.84 4.34,0 8.08,0.94 11.23,2.84 3.15,1.9 5.57,4.53 7.27,7.93 1.69,3.4 2.54,7.35 2.54,11.85 0,4.49 -0.85,8.44 -2.54,11.85 -1.7,3.4 -4.12,6.03 -7.27,7.93 -3.15,1.9 -6.89,2.84 -11.23,2.84zm0 -7.73c2.75,0.05 5.04,-0.55 6.87,-1.76 1.83,-1.23 3.21,-2.98 4.12,-5.22 0.91,-2.25 1.37,-4.89 1.37,-7.91 0,-3.03 -0.46,-5.64 -1.37,-7.85 -0.91,-2.2 -2.29,-3.93 -4.12,-5.14 -1.83,-1.24 -4.12,-1.87 -6.87,-1.9 -2.75,-0.05 -5.06,0.54 -6.89,1.78 -1.83,1.21 -3.2,2.95 -4.1,5.21 -0.91,2.24 -1.37,4.87 -1.37,7.9 0,3.02 0.46,5.64 1.37,7.85 0.9,2.2 2.27,3.93 4.1,5.16 1.83,1.21 4.14,1.84 6.89,1.88zm27.68 6.82l0 -43.42 8.2 0 0 35.76 18.7 0 0 7.66 -26.9 0z"/>
   <path class="fil0" d="M1651.07 508.23c-4.34,0 -8.08,-0.94 -11.23,-2.84 -3.15,-1.9 -5.57,-4.53 -7.27,-7.93 -1.69,-3.41 -2.54,-7.36 -2.54,-11.85 0,-4.5 0.85,-8.45 2.54,-11.85 1.7,-3.4 4.12,-6.03 7.27,-7.93 3.15,-1.9 6.89,-2.84 11.23,-2.84 4.34,0 8.09,0.94 11.23,2.84 3.15,1.9 5.58,4.53 7.27,7.93 1.69,3.4 2.55,7.35 2.55,11.85 0,4.49 -0.86,8.44 -2.55,11.85 -1.69,3.4 -4.12,6.03 -7.27,7.93 -3.14,1.9 -6.89,2.84 -11.23,2.84zm0 -7.73c2.75,0.05 5.05,-0.55 6.87,-1.76 1.83,-1.23 3.22,-2.98 4.12,-5.22 0.91,-2.25 1.37,-4.89 1.37,-7.91 0,-3.03 -0.46,-5.64 -1.37,-7.85 -0.9,-2.2 -2.29,-3.93 -4.12,-5.14 -1.82,-1.24 -4.12,-1.87 -6.87,-1.9 -2.75,-0.05 -5.06,0.54 -6.89,1.78 -1.83,1.21 -3.19,2.95 -4.1,5.21 -0.91,2.24 -1.37,4.87 -1.37,7.9 0,3.02 0.46,5.64 1.37,7.85 0.91,2.2 2.27,3.93 4.1,5.16 1.83,1.21 4.14,1.84 6.89,1.88zm45.17 7.73c-2.74,0 -5.33,-0.48 -7.81,-1.46 -2.48,-0.97 -4.67,-2.42 -6.57,-4.32 -1.9,-1.92 -3.38,-4.28 -4.48,-7.1 -1.09,-2.82 -1.64,-6.07 -1.64,-9.74 0,-4.81 0.92,-8.89 2.75,-12.26 1.85,-3.37 4.33,-5.93 7.42,-7.69 3.11,-1.78 6.55,-2.67 10.33,-2.67 5.59,0 9.98,1.3 13.18,3.9 3.2,2.58 5.35,6.26 6.43,10.99l-8.4 1.21c-0.77,-2.53 -2.05,-4.54 -3.84,-6.06 -1.78,-1.53 -4.05,-2.29 -6.82,-2.31 -2.76,-0.05 -5.06,0.54 -6.89,1.78 -1.83,1.21 -3.2,2.95 -4.11,5.21 -0.9,2.24 -1.36,4.87 -1.36,7.9 0,3.02 0.46,5.64 1.36,7.85 0.91,2.2 2.28,3.93 4.11,5.16 1.83,1.21 4.13,1.84 6.89,1.88 1.86,0.05 3.55,-0.27 5.07,-0.96 1.53,-0.68 2.81,-1.76 3.85,-3.23 1.04,-1.47 1.8,-3.35 2.24,-5.64l-6.87 0 0 -6.33 15.61 0c0.05,0.26 0.06,0.72 0.08,1.39 0.02,0.66 0.04,1.04 0.04,1.14 0,4.16 -0.84,7.85 -2.53,11.08 -1.7,3.22 -4.07,5.73 -7.15,7.56 -3.08,1.81 -6.7,2.72 -10.89,2.72zm27.2 -0.91l0 -43.42 8.2 0 0 43.42 -8.2 0zm14.24 0l13.27 -43.42 12.24 0 13.26 43.42 -8.44 0 -11.82 -38.29 1.56 0 -11.64 38.29 -8.43 0zm7.95 -9.04l0 -7.66 22.92 0 0 7.66 -22.92 0zm66.95 9.95c-4.35,0 -8.09,-0.94 -11.24,-2.84 -3.14,-1.9 -5.57,-4.53 -7.26,-7.93 -1.69,-3.41 -2.55,-7.36 -2.55,-11.85 0,-4.5 0.86,-8.45 2.55,-11.85 1.69,-3.4 4.12,-6.03 7.26,-7.93 3.15,-1.9 6.89,-2.84 11.24,-2.84 4.97,0 9.16,1.23 12.54,3.71 3.41,2.48 5.8,5.81 7.18,10.04l-8.27 2.29c-0.8,-2.64 -2.15,-4.67 -4.07,-6.12 -1.9,-1.46 -4.36,-2.19 -7.38,-2.19 -2.76,0 -5.06,0.61 -6.89,1.84 -1.83,1.22 -3.22,2.94 -4.16,5.18 -0.92,2.23 -1.38,4.84 -1.38,7.87 0,3.02 0.46,5.64 1.38,7.88 0.94,2.22 2.33,3.95 4.16,5.18 1.83,1.21 4.13,1.83 6.89,1.83 3.02,0 5.48,-0.74 7.38,-2.19 1.92,-1.47 3.27,-3.5 4.07,-6.12l8.27 2.29c-1.38,4.22 -3.77,7.56 -7.18,10.04 -3.38,2.48 -7.57,3.71 -12.54,3.71zm26.96 -0.91l0 -43.42 8.2 0 0 35.76 18.7 0 0 7.66 -26.9 0zm39.9 -47.95l-6.09 0 5.01 -11.77 6.09 0 -5.01 11.77zm-7.27 47.95l0 -43.42 8.21 0 0 43.42 -8.21 0zm17.25 0l0 -43.42 8.33 0 18.87 28.94 0 -28.94 8.33 0 0 43.42 -8.33 0 -18.87 -28.94 0 28.94 -8.33 0zm44.57 0l0 -43.42 8.21 0 0 43.42 -8.21 0zm35.89 0.91c-4.35,0 -8.09,-0.94 -11.24,-2.84 -3.14,-1.9 -5.57,-4.53 -7.26,-7.93 -1.7,-3.41 -2.55,-7.36 -2.55,-11.85 0,-4.5 0.85,-8.45 2.55,-11.85 1.69,-3.4 4.12,-6.03 7.26,-7.93 3.15,-1.9 6.89,-2.84 11.24,-2.84 4.97,0 9.16,1.23 12.54,3.71 3.41,2.48 5.8,5.81 7.18,10.04l-8.27 2.29c-0.8,-2.64 -2.15,-4.67 -4.07,-6.12 -1.9,-1.46 -4.36,-2.19 -7.38,-2.19 -2.76,0 -5.07,0.61 -6.89,1.84 -1.83,1.22 -3.22,2.94 -4.16,5.18 -0.92,2.23 -1.38,4.84 -1.38,7.87 0,3.02 0.46,5.64 1.38,7.88 0.94,2.22 2.33,3.95 4.16,5.18 1.82,1.21 4.13,1.83 6.89,1.83 3.02,0 5.48,-0.74 7.38,-2.19 1.92,-1.47 3.27,-3.5 4.07,-6.12l8.27 2.29c-1.38,4.22 -3.77,7.56 -7.18,10.04 -3.38,2.48 -7.57,3.71 -12.54,3.71z"/>
   <path class="fil0" d="M1992.02 507.32l13.27 -43.42 12.24 0 13.27 43.42 -8.45 0 -11.81 -38.29 1.55 0 -11.64 38.29 -8.43 0zm7.95 -9.04l0 -7.66 22.93 0 0 7.66 -22.93 0z"/>
  </g>
 </g>
</svg>
