<svg width="198" height="195" viewBox="0 0 198 195" fill="none" xmlns="http://www.w3.org/2000/svg">
<path d="M183.889 59.2377C185.319 58.6235 186.135 58.166 186.266 58.0925C193.262 54.081 197.609 46.5859 197.609 38.5278C197.609 26.3815 187.945 16.4521 175.902 16.0138C173.675 6.8361 165.393 0 155.541 0C144.102 0 134.777 9.2161 134.592 20.6107L131.412 50.7733C130.465 59.7495 123.594 67.0303 114.698 68.4762C109.948 69.2471 106.499 73.3289 106.499 78.1817V130.826C106.499 133.568 108.719 135.788 111.458 135.788C114.199 135.788 116.419 133.568 116.419 130.826V78.2457C129.656 76.0352 139.87 65.1845 141.28 51.813L144.479 21.4744C144.486 21.3848 144.489 21.292 144.492 21.2025C144.495 21.1225 144.505 21.0393 144.505 20.9562C144.505 14.8686 149.453 9.91986 155.541 9.91986C160.547 9.91986 164.782 13.2723 166.129 17.85C165.915 17.9428 165.697 18.0323 165.486 18.1315C163.007 19.2991 161.945 22.2549 163.113 24.7341C164.277 27.2132 167.233 28.2753 169.712 27.1077C171.394 26.3176 173.199 25.9145 175.076 25.9145C182.031 25.9145 187.689 31.5734 187.689 38.5278C187.689 43.0383 185.252 47.2353 181.333 49.4842C181.26 49.5257 175.93 52.4975 166.852 53.1789C166.19 53.1373 165.525 53.1117 164.853 53.1117C164.367 53.1117 163.9 53.1853 163.455 53.3133C160.515 53.3325 157.265 53.0957 153.737 52.4687C151.037 51.9889 148.465 53.7867 147.985 56.4834C147.505 59.1833 149.303 61.7552 152 62.2383C155.973 62.9452 159.68 63.2299 163.074 63.2299C164.341 63.2299 165.563 63.1883 166.737 63.118C178.451 64.0808 187.689 73.9143 187.689 85.8719C187.689 98.4629 177.443 108.709 164.853 108.709C162.111 108.709 159.891 110.929 159.891 113.667C159.891 115.424 160.803 116.962 162.179 117.845C164.578 120.747 165.899 124.416 165.899 128.194C165.899 137.16 158.602 144.457 149.633 144.457C146.178 144.457 142.877 143.389 140.09 141.367C137.874 139.758 134.771 140.247 133.162 142.464C131.553 144.681 132.045 147.784 134.262 149.393C134.355 149.46 134.448 149.521 134.54 149.588C134.109 154.195 130.222 157.816 125.501 157.816C120.494 157.816 116.419 153.743 116.419 148.734V148.558C116.419 145.82 114.199 143.596 111.458 143.596C108.719 143.596 106.499 145.82 106.499 148.558V174.505C106.499 178.922 109.007 182.761 112.676 184.677H84.9327C88.6018 182.761 91.1129 178.922 91.1129 174.505V148.558C91.1129 145.82 88.8929 143.596 86.1514 143.596C83.4132 143.596 81.19 145.82 81.19 148.558V148.734C81.19 153.743 77.1179 157.816 72.1085 157.816C67.3902 157.816 63.5004 154.195 63.0685 149.588C63.1613 149.521 63.2541 149.46 63.3468 149.393C65.5636 147.784 66.0563 144.681 64.4472 142.464C62.8382 140.247 59.7353 139.758 57.5185 141.367C54.7323 143.389 51.4343 144.457 47.9764 144.457C39.0068 144.457 31.7102 137.16 31.7102 128.194C31.7102 124.416 33.0313 120.747 35.4305 117.845C36.806 116.962 37.7208 115.424 37.7208 113.667C37.7208 110.929 35.4976 108.709 32.7594 108.709C20.1656 108.709 9.92283 98.4629 9.92283 85.8719C9.92283 73.9143 19.1579 64.0808 30.8689 63.118C32.0461 63.1883 33.268 63.2299 34.5348 63.2299C37.9288 63.2299 41.6362 62.9452 45.6092 62.2383C48.3058 61.7552 50.1036 59.1833 49.6238 56.4834C49.1439 53.7867 46.5721 51.9889 43.8722 52.4687C40.3311 53.0989 37.0523 53.3261 34.0838 53.2973C33.6615 53.1789 33.2169 53.1117 32.7594 53.1117C32.1484 53.1117 31.5407 53.1309 30.9393 53.1661C21.8162 52.4911 16.3365 49.5161 16.2758 49.4842C12.3572 47.2353 9.92283 43.0383 9.92283 38.5278C9.92283 31.5734 15.5784 25.9145 22.5327 25.9145C24.4104 25.9145 26.2178 26.3176 27.8972 27.1077C30.3763 28.2753 33.332 27.2132 34.4996 24.7341C35.6672 22.2549 34.602 19.2991 32.1229 18.1315C31.9117 18.0323 31.6974 17.9428 31.4799 17.85C32.8266 13.2723 37.0619 9.91986 42.0713 9.91986C48.1555 9.91986 53.1041 14.8686 53.1041 20.9562C53.1041 21.0393 53.1137 21.1225 53.1169 21.2025C53.1233 21.292 53.1233 21.3848 53.1329 21.4744L56.3318 51.813C57.7392 65.1845 67.9564 76.0352 81.19 78.2457V130.826C81.19 133.568 83.4132 135.788 86.1514 135.788C88.8929 135.788 91.1129 133.568 91.1129 130.826V78.1817C91.1129 73.3289 87.6613 69.2471 82.911 68.4762C74.015 67.0303 67.1439 59.7495 66.197 50.7733L63.0174 20.6107C62.8318 9.2161 53.5104 0 42.0713 0C32.2156 0 23.9338 6.8361 21.7074 16.0138C9.66373 16.4521 0 26.3815 0 38.5278C0 46.5859 4.34724 54.081 11.3431 58.0925C11.4743 58.166 12.29 58.6235 13.7199 59.2377C5.42205 65.1877 0 74.906 0 85.8719C0 100.936 10.2267 113.651 24.1001 117.461C22.5935 120.814 21.7906 124.47 21.7906 128.194C21.7906 142.63 33.5399 154.38 47.9764 154.38C49.95 154.38 51.8918 154.156 53.7759 153.731C55.9767 161.792 63.3596 167.739 72.1085 167.739C75.3969 167.739 78.4902 166.897 81.19 165.423V174.505C81.19 175.355 80.4991 176.05 79.6482 176.05H75.3329C72.5947 176.05 70.3715 178.27 70.3715 181.011V189.635C70.3715 192.377 72.5947 194.597 75.3329 194.597H122.276C125.017 194.597 127.237 192.377 127.237 189.635V181.011C127.237 178.27 125.017 176.05 122.276 176.05H117.964C117.11 176.05 116.419 175.355 116.419 174.505V165.423C119.119 166.897 122.212 167.739 125.501 167.739C134.249 167.739 141.632 161.792 143.833 153.731C145.717 154.156 147.659 154.38 149.633 154.38C164.072 154.38 175.818 142.63 175.818 128.194C175.818 124.47 175.016 120.814 173.512 117.461C187.382 113.651 197.609 100.936 197.609 85.8719C197.609 74.906 192.187 65.1877 183.889 59.2377Z" fill="white"/>
<path d="M86.624 13.1379H110.983V22.4468H107.225C104.035 22.4468 101.105 23.5664 98.802 25.4346C96.502 23.5664 93.5719 22.4468 90.3858 22.4468H86.624V13.1379ZM81.6626 32.3666H90.3858C92.2924 32.3666 93.8438 33.9213 93.8438 35.8279C93.8438 38.5694 96.0638 40.7894 98.802 40.7894C101.543 40.7894 103.763 38.5694 103.763 35.8279C103.763 33.9213 105.315 32.3666 107.225 32.3666H115.945C118.683 32.3666 120.906 30.1466 120.906 27.4051V8.17638C120.906 5.4381 118.683 3.21484 115.945 3.21484H81.6626C78.9244 3.21484 76.7012 5.4381 76.7012 8.17638V27.4051C76.7012 30.1466 78.9244 32.3666 81.6626 32.3666Z" fill="white"/>
</svg>
